<svg xmlns="http://www.w3.org/2000/svg" xmlns:xlink="http://www.w3.org/1999/xlink" version="1.1" x="0px" y="0px" width="585px" height="83px" viewBox="0 0 585 83" enable-background="new 0 0 585 83" xml:space="preserve"><g><path d="M16.8 46.4v-22l-6.6 3c0 0-1.7 3.8-1.4 9.3c0.2 4.3 2.6 9.4 4.5 11.6L16.8 46.4 M36.2 1.1c1.6 0.1 4.2 0.9 6.1 2.6 c2.1 2 2.5 5 1.8 7.8c-0.6 2.4-1.4 3.7-3.9 5.4c-2.5 1.7-5.6 1.6-5.6 1.6v10.6l5.2 4.2l-5.2 4.2l0 14.5c0 0 5.2-3 8.4-9.6 c0 0 0.1-0.4 0.4-1c0.3 1.8 0.1 5.4-1.9 10c-1.5 3.5-4.3 6.8-7.7 8.7c-6.1 3.4-10.7 3.7-15.7 2.7c-5.8-1.2-11-4.4-14.6-10.1 C1.1 48.6 0 44 0.1 39C0.3 29.2 7.6 20.8 16 17.6c1-0.4 1.4-0.6 2.9-0.8c-0.7 0.5-1.4 1-2.4 1.7c-2.7 1.8-5 5.3-6 8l16.3-7.3v22.8 l-13.2 6.6c1.5 2.1 6.1 5.2 9.9 5.7c6.6 0.7 10.5-2.2 10.5-2.2l0-14.8l-5.1-4.2l5.1-4.2V18.5c-2.8-0.3-6.2-1.2-8.2-1.7 C23 16 13.2 13.3 11.7 13c-1.5-0.2-3.4-0.2-4.6 0.9c-1.1 1-1.9 2.8-1.4 4.5c0.3 0.9 0.9 1.5 1.4 2c0 0-0.6 0-1.6-0.7 c-1.8-1.1-3.2-3.3-3.4-5.9C1.9 10.3 3.4 7.1 6.3 5c2.5-1.6 5.3-2.6 8.6-2.2c4.8 0.7 11.3 3.4 17 4.8c2.2 0.5 4 0.7 5.5-0.2 c0.7-0.5 2-1.9 1-3.7c-1.2-2.1-3.6-2.1-5.6-2.4C34.5 1 34.9 1 36.2 1.1z"/><path d="M99.6 40.7l-7.4 5.4V28L99.6 40.7 M99.4 23.3c0 0-5 3-8.4 5c-3.4 2-7.9 4.2-7.9 4.2v21l-3 2.4l0.4 0.5l2.9-2.4l9.2 8.3 l16-12.7l-0.4-0.5l-8.8 6.9l-7.3-6.8l0-2.5l14.6-10.7L99.4 23.3z"/><path d="M57.6 70.3c2.1 0.5 5.8 0.8 10.3-1.4c4.9-2.5 7.4-7.7 7.4-13.1l0.2-7.6l0-16.7l3.2-2.4l-0.4-0.5l-3.1 2.3l-7.2-8l-9.2 7.9 V4l-11.5 8.9c0.5 0.3 2.1 0.6 2.2 2.9v37.6L44.6 57l0.3 0.5l2.4-1.8l6.5 6.1l10.3-8.2l-0.4-0.5l-2.4 1.9l-2.6-2.5l0-20.9l3-2.6 l4.5 5.6c0 0 0 13.6 0 18.1c0 4.8 0 10.8-2.6 13.7C61.2 69.3 60.1 69.5 57.6 70.3"/><path d="M129.1 68.4c-4.1-0.5-5.8-3-5.8-4.9c0-1.3 1.2-3.7 3.7-4.1c2.5-0.3 5.1 0.8 7.2 3.4l9.5-10.5l-0.5-0.4l-2.6 2.9 c-2.6-3-6.3-4.8-9.9-5.4v-32l24.7 45c0 0 0.2 0.5 1.3 0.5c0.9 0 0.7-0.7 0.7-0.7l0-45.3c2-0.1 5.1-1.2 6.6-2.7 c4.8-4.9 2.8-10.2 2.3-10.7c-0.3 2.3-2.1 4.7-5.1 4.7c-3.9 0-6.3-2.9-6.3-2.9L145.3 16l0.5 0.4l2.7-3.1c3.3 3.1 5.8 3.3 8.3 3.5 l0 26.3L138.4 9.8c-1.7-2.7-4.2-5.2-8.1-5.2c-4.6 0-7.8 4-8.2 7.4c-0.4 3.9 0 4.8 0 4.8s0.7-4.3 3.4-4.3c2.4 0 3.7 2.3 4.6 3.9v9.6 c-2.5 0.2-9 0.5-9.4 7.2c0 2.5 1.5 5.1 2.9 6c1.8 1.2 3.1 1.1 3.1 1.1s-2.1-1.1-1.5-3.3c0.6-2 4.7-2.3 4.8-1.5l0 13.6 c-2 0-8.3 0.2-11.2 5.6c-1.7 3.3-1.6 7 0.2 9.6C120.7 66.6 123.8 69.3 129.1 68.4"/><path d="M181.4 40.7l-7.4 5.4V28L181.4 40.7 M181.2 23.3c0 0-5 3-8.4 5c-3.4 2-7.9 4.2-7.9 4.2v21l-3 2.4l0.4 0.5l2.9-2.4l9.2 8.3 l16-12.7l-0.4-0.5l-8.8 6.9l-7.3-6.8l0-2.5l14.6-10.7L181.2 23.3z"/><path d="M203.6 62.5l-7.8-6.5l-3.4 2.5l-0.3-0.5l3.5-2.6V37.3c0.2-7.5-6.9-5.6-6.5-13.6c0.2-3.5 3.5-6.1 5.3-7 c1.8-0.9 3.8-0.9 3.8-0.9s-3.2 2-2.4 4.9c1.2 4.4 8.8 4.8 8.9 10.8V52l5.6 4.5l1.5-1.2V33l-3-3l7.8-6.9l7.1 6.3l-2.7 2.9v19.8 l6.7 5.5l1.2-0.8V33.1l-3-2.8l7.8-7.1l7.3 6l2.9-2.6L244 27l-6.6 5.8v19.4l-16.8 10.3l-8.6-6.8L203.6 62.5"/><path d="M546.9 40.7l-7.4 5.4V28L546.9 40.7 M546.7 23.3c0 0-5 3-8.4 5c-3.4 2-7.9 4.2-7.9 4.2v21l-3 2.4l0.4 0.5l2.9-2.4l9.2 8.3 l16-12.7l-0.4-0.5l-8.8 6.9l-7.3-6.8v-2.5l14.6-10.7L546.7 23.3z"/><polyline points="471.7,32.1 472.1,32.6 475.1,30 479.6,35 479.6,52.4 477.4,54.4 484.4,62.2 491.5,55.2 488.6,52.2 488.6,31.2 490.4,29.7 495.3,35.5 495.3,52.8 493.4,54.7 500,62 507,55 504.4,52.3 504.4,31.2 506.3,29.7 511.4,35.4 511.4,52.6 509.7,54.3 516.9,62.2 526.7,53.2 526.2,52.8 523.9,54.9 520.3,50.9 520.3,31.3 523.8,28.6 523.4,28.1 519.9,30.8 513.3,23.4 503.8,30.8 497.2,23.6 488.1,30.8 481.4,23.7 471.7,32.1"/><polyline points="452,31.6 452.4,32 454.9,29.8 458.9,34.5 458.9,54.4 456.1,56.8 456.5,57.3 459.4,54.8 465.8,62.2 475.1,53.9 474.7,53.4 472,55.8 468.1,51.4 468.1,32 471.4,29.2 471,28.8 467.9,31.4 461.2,23.5 452,31.6"/><polyline points="454.6,15.1 461.6,8.7 467.3,15 460.3,21.4 454.6,15.1"/><path d="M425.9 46.4v-22l-6.6 3c0 0-1.7 3.8-1.4 9.3c0.2 4.3 2.6 9.4 4.5 11.6L425.9 46.4 M445.3 1.1c1.6 0.1 4.2 0.9 6.1 2.6 c2.1 2 2.5 5 1.8 7.8c-0.6 2.4-1.4 3.7-3.9 5.4c-2.5 1.7-5.6 1.6-5.6 1.6v10.6l5.2 4.2l-5.2 4.2v14.5c0 0 5.2-3 8.4-9.6 c0 0 0.1-0.4 0.4-1c0.3 1.8 0.1 5.4-1.9 10c-1.5 3.5-4.3 6.8-7.7 8.7c-6.1 3.4-10.7 3.7-15.6 2.7c-5.8-1.2-11-4.4-14.6-10.1 c-2.5-4-3.6-8.6-3.5-13.6c0.2-9.8 7.5-18.2 15.9-21.4c1-0.4 1.4-0.6 2.9-0.8c-0.7 0.5-1.4 1-2.4 1.7c-2.7 1.8-5 5.3-6 8l16.3-7.3 v22.8l-13.1 6.6c1.5 2.1 6.1 5.2 9.9 5.7c6.6 0.7 10.5-2.2 10.5-2.2V37.4l-5.1-4.2l5.1-4.2V18.5c-2.8-0.3-6.2-1.2-8.2-1.7 c-2.9-0.7-12.7-3.5-14.2-3.7s-3.4-0.2-4.6 0.9c-1.1 1-1.9 2.8-1.4 4.5c0.3 0.9 0.9 1.5 1.4 2c0 0-0.6 0-1.6-0.7 c-1.8-1.1-3.2-3.3-3.4-5.9c-0.2-3.5 1.2-6.6 4.1-8.8c2.5-1.6 5.3-2.6 8.6-2.2c4.8 0.7 11.3 3.4 17 4.8c2.2 0.5 4 0.7 5.5-0.2 c0.7-0.5 2-1.9 1-3.7c-1.2-2.1-3.6-2.1-5.6-2.4C443.6 1 444 1 445.3 1.1z"/><path d="M567.5 27.4v10.4l3.5 3c0 0 7.5-6 10.3-11.6c0 0-3.4 4.6-8 3.2C569.5 31.2 567.5 27.4 567.5 27.4 M559.1 55 c0 0 3.3-5.5 9-4.3c5.4 1.1 7.3 6.9 7.3 6.9V44.4l-3.8-3.3C567.4 45.3 560 51.3 559.1 55z M564.5 65.1c-1.1 0.3-5.7-0.8-6.8-5.6 c-1.1-4.6 2.2-7.8 7-12.7l-5.8-5.3v-10c0 0 4.2-2.1 7.5-4.2c3.3-2.1 6.7-4.3 6.7-4.3s2.5 3.1 5.3 2.9c4.4-0.4 4.2-3.8 4-4.6 c0.7 1.3 2.7 5.3-4.9 14.2l6.3 5.1v13c0 0-7.3 3.8-14.1 8.8c0 0-3.8-4.8-7.2-2.5C560.3 61.3 561.3 63.9 564.5 65.1z"/><path d="M313 50.3l8.1 7.3V35.2l-8.1-7.5V50.3 M329.6 32l2.8-2.6l0.4 0.5l-2.7 2.5v20.7c0 0-5.2 2.8-8.9 4.8 c-3.6 2.1-7.5 4.5-7.5 4.5l-9.6-8.1l-2.5 2.2l-0.4-0.5l2.7-2.3V31.5h0c0 0 4.5-2 8.3-4.2c3.4-1.9 7.2-4.1 7.2-4.1L329.6 32z"/><path d="M348.4 29.9l6.1-6.2c0 0 0.8 0.7 1.6 1.1c0.4 0.2 2.3 1.2 4 0.2c0.9-0.5 1-0.6 2-1.6c0.2 4.8-2.1 8.2-5 9.6 c-1.2 0.6-4.6 1.7-8.3-2.7v22.3l3.8 3.4l3.2-2.7l0.4 0.5l-10.1 8.4l-7.6-7l-2.8 2.6l-0.5-0.5l4.2-3.8l0-19.3l-3.2-4.3l-2.8 2.4 l-0.4-0.4l9.7-8.8L348.4 29.9"/><path d="M374 39.2l11.2-16.3c0 0 1.5 1.8 4.1 2.4c3.5 0.9 6.6-2.5 6.6-2.5c-0.6 4.4-2.8 9.3-7.4 10.1c-4 0.7-7.8-2.5-7.8-2.5 l-0.7 1.1l15.6 23.6l3.1-2.7l0.4 0.5l-10.7 9.4L374 39.2"/><path d="M364.8 17.4c0-3.5-1.4-5.7-3.3-5.5l12.3-8.6v48.7h0l3.2 3.4l2.5-2.1l0.4 0.5l-9.9 8.6l-6.7-6.3l-2.7 2.4l-0.4-0.5l4.7-4.1 V17.4"/><path d="M286.1 31.1c0 0-1.4 1.5-3.5 1.5s-3.5-1.5-3.5-1.5v6.7c0 0 1.4-1.5 3.5-1.5s3.5 1.5 3.5 1.5V31.1 M286.1 16.8l-4.7-4.2 l-2.3 1.8v15.6c0 0 1.4 1.8 3.5 1.8c2.1 0 3.5-1.7 3.5-1.7V16.8z M279.1 61.1c0 0 2.9 0.8 4.9-0.9c2.3-1.9 2.1-4.6 2.1-4.6V38.7 c0 0-1.3-1.7-3.5-1.7c-2.1 0-3.5 1.8-3.5 1.8V61.1z M262.3 16.6c0-3.3-1.3-5.1-3.5-5.2c-3.1-0.1-3.9 4.3-3.9 4.3s-0.6-3.4 2.3-6.5 c1.6-1.7 4.6-4.1 9.2-3c4.8 1.2 6.2 4.9 6.2 8.2v45.3c0 0 1.8 0.2 3.1 0.5c1.4 0.3 2.8 0.7 2.8 0.7V6.3h0.6v7.4l9.8-7.9l7.2 6.4 l3.4-2.9l0.4 0.5l-3.5 3v42.1c-0.2 2.7-0.6 5.5-3.2 7.2c-5.8 3.4-12.8-0.5-19-1.4c-4.6-0.7-11.9-1.6-13.7 2.7 c-0.6 1.4-0.6 3.5 1.5 4.9c4.2 2.8 22.9-4.7 29.3-1.7c5.9 2.7 5.8 7 4.9 10c-1.5 5.6-8.5 6.5-8.5 6.5s3.4-2 2.5-5.3 c-0.5-1.7-1.6-2.1-5.3-1.7c-8 0.9-17.6 4.8-24.1 2.1c-3.3-1.4-5.7-5.5-5.4-9.6c0.2-5.9 6.9-8.2 6.9-8.2l0-21.7 c-0.2-0.9-3.8-0.6-4.6 1c-1.2 2.4 1.5 3.5 1.5 3.5s-2.2 0.3-4.1-1.8c-0.9-1.1-2.8-4.8-0.3-8.2c2-2.8 4.5-3.3 7.6-3.6V16.6z"/></g><g></g><g></g><g></g><g></g><g></g><g></g></svg>