<?xml version="1.0" encoding="UTF-8" standalone="no"?>
<svg width="599px" height="299px" viewBox="0 0 599 299" version="1.1" xmlns="http://www.w3.org/2000/svg" xmlns:xlink="http://www.w3.org/1999/xlink" xmlns:sketch="http://www.bohemiancoding.com/sketch/ns">
    <!-- Generator: Sketch Beta 3.0.4 (8156) - http://www.bohemiancoding.com/sketch -->
    <title>MailChimp_Logo_LightBackground</title>
    <desc>Created with Sketch Beta.</desc>
    <defs></defs>
    <g id="Page-1" stroke="none" stroke-width="1" fill="none" fill-rule="evenodd" sketch:type="MSPage">
        <g id="MailChimp_Logo_LightBackground" sketch:type="MSLayerGroup">
            <path d="M0,0 L600,0 L600,299.94 L0,299.94 L0,0 Z" id="Fill-1" fill="#FFFFFF" sketch:type="MSShapeGroup"></path>
            <path d="M210.449,152.539 L210.449,152.537 L210.449,152.539" id="Fill-3" fill="#0B0B0A" sketch:type="MSShapeGroup"></path>
            <path d="M473.727,167.043 L473.665,166.93 L473.541,166.537 L473.598,166.42 C477.49,158.4 481.949,153.803 485.831,153.803 L485.871,153.803 C490.253,153.836 493.283,157.779 493.241,163.389 C493.212,167.133 491.561,169.289 490.184,170.438 C488.61,171.75 486.516,172.5 484.435,172.5 C479.307,172.461 475.787,169.512 473.727,167.043 L473.727,167.043 Z M472.665,197.318 C472.039,198.152 471.167,198.574 470.075,198.574 C468.821,198.564 467.879,198.127 467.238,197.271 C465.442,194.871 465.948,189.232 468.878,178.994 C469.227,177.771 469.608,176.541 470.009,175.338 L470.349,174.316 L470.647,175.35 C474.063,187.168 474.74,194.559 472.665,197.318 L472.665,197.318 Z M347.192,142.881 C347.307,140.329 347.521,137.844 347.826,135.495 C349.803,120.353 353.93,109.778 357.865,109.778 L357.882,109.778 C359.758,109.792 360.697,111.211 360.677,113.993 C360.624,120.83 356.292,130.618 347.803,143.085 L347.139,144.061 L347.192,142.881 L347.192,142.881 Z M484.879,177.42 L485.017,177.422 C493.279,177.422 499.095,171.697 499.157,163.504 C499.188,159.447 498.017,155.734 495.857,153.051 C493.574,150.211 490.378,148.696 486.613,148.667 L486.538,148.667 C481.457,148.667 476.739,152.521 472.114,160.453 L471.746,161.086 L471.509,160.395 C470.341,156.994 469.301,154.162 468.679,152.469 C468.244,151.287 468.051,150.756 468.006,150.584 C467.784,149.726 467.05,149.193 466.089,149.193 C465.498,149.193 464.87,149.394 464.275,149.772 C463.686,150.146 463.357,150.605 463.239,151.217 L463.209,151.309 C458.58,165.744 454.763,172.756 451.53,172.756 C451.06,172.752 450.692,172.598 450.418,172.293 C449.571,171.357 449.779,169.131 450.067,166.049 C450.278,163.785 450.52,161.221 450.419,158.502 C450.227,153.273 447.367,150.133 442.767,150.098 C436.922,150.096 433.133,156.32 431.388,160.031 L430.867,161.139 L430.752,159.92 C430.316,155.328 428.775,149.843 423.909,149.806 C418.233,149.806 413.909,156.467 411.271,162.057 L410.564,163.555 L410.635,161.9 C410.949,154.445 411.206,150.043 411.399,148.823 C411.592,147.598 411.49,146.776 411.09,146.305 C410.711,145.864 409.995,145.701 408.945,145.767 C407.128,145.882 406.199,146.988 404.8,150.695 C402.503,156.783 396.658,170.947 391.991,170.947 C391.065,170.941 390.332,170.625 389.795,170.01 C387.838,167.766 388.621,161.701 389.704,153.307 L389.786,152.672 C390.298,148.698 389.424,147.85 387.267,147.453 C387.034,147.411 386.813,147.388 386.61,147.388 C384.887,147.388 384.08,149.04 382.471,153.627 C379.605,161.791 375.922,170.377 371.612,170.377 C371.454,170.377 371.298,170.365 371.141,170.34 C368.857,169.951 368.907,166.564 368.971,162.273 C369.004,159.953 369.043,157.322 368.685,154.947 C368.042,150.686 365.53,148.024 362.131,147.998 C355.346,147.998 350.77,156.686 348.643,161.865 L348.16,163.037 L348,161.779 C347.715,159.533 347.339,155.975 347.176,151.766 L347.171,151.641 L347.248,151.543 C359.945,135.56 365.642,124.026 365.718,114.144 C365.767,107.831 362.853,104.039 357.927,104.001 C354.325,104.001 345.758,107.001 342.782,134.797 C342.229,139.952 341.926,145.237 341.881,150.506 L341.88,150.609 L341.821,150.693 C336.013,159.102 323.614,173.564 311.477,173.564 C300.509,173.564 291.759,164.691 291.759,149.03 C291.759,128.034 306.621,115.143 317.805,115.143 L317.897,115.144 C320.327,115.162 322.411,115.841 323.924,117.107 C325.495,118.421 326.316,120.263 326.3,122.433 C326.277,125.332 325.334,126.822 324.421,128.261 C324.186,128.632 323.953,129 323.739,129.39 C323.523,129.783 323.326,130.355 323.613,130.844 C323.907,131.345 324.658,131.661 325.573,131.667 C328.235,131.667 332.262,127.814 332.306,122.007 C332.352,115.93 327.232,109.669 318.1,109.669 C304.278,109.669 285.665,124.852 285.665,149.46 C285.665,166.867 296.579,178.898 311.363,178.898 C321.854,178.898 332.232,171.387 341.423,158.84 L341.986,158.08 L342.026,159.025 C342.222,163.617 342.555,167.236 342.799,169.879 C342.956,171.578 343.07,172.805 343.064,173.482 C343.053,174.967 343.295,175.996 343.807,176.629 C344.317,177.262 345.131,177.561 346.361,177.57 C348.426,177.57 348.839,176.162 349.656,172.691 L349.892,171.699 C350.907,167.492 354.659,153.762 360.303,153.762 C361.225,153.77 361.935,154.043 362.44,154.578 C363.686,155.9 363.551,158.613 363.393,161.756 C363.294,163.717 363.192,165.742 363.389,167.715 C363.921,173.041 366.22,175.645 370.42,175.676 C374.732,175.678 379.231,171.033 381.605,166.717 L382.054,165.902 L382.228,166.816 C382.667,169.125 384.627,176.707 390.764,176.707 C396.327,176.707 401.098,170.85 406.329,158.795 L407.013,157.221 L406.971,158.938 C406.859,163.506 406.612,169.084 406.61,173.396 C406.608,176.732 406.945,178.006 408.487,178.006 C408.597,178.006 408.715,178.021 408.837,178.021 C410.316,178.021 411.32,177.139 411.821,175.393 C415.756,161.676 419.158,155.287 422.528,155.287 C425.828,155.313 426.138,161.346 426.402,172.008 L426.42,172.756 C426.5,176.484 426.634,178.135 428.951,178.152 C430.709,178.152 431.146,176.771 432.055,173.371 C432.228,172.723 432.418,172.012 432.64,171.244 C435.817,160.219 438.452,155.721 441.731,155.721 C444.539,155.742 444.695,158.637 444.747,159.588 C444.855,161.625 444.645,163.758 444.443,165.816 C444.255,167.73 444.06,169.709 444.134,171.551 C444.306,175.863 446.667,178.256 450.783,178.287 C456.125,178.287 460.947,172.039 465.17,159.721 L465.463,158.861 L465.798,159.705 C466.563,161.641 467.561,164.262 468.486,167.389 L468.521,167.508 L468.471,167.621 C464.382,176.701 461.497,186.816 461.456,192.219 C461.401,199.336 464.621,203.961 469.66,204 L469.747,204 C472.488,204 478.877,202.9 479.001,192.715 C479.051,188.541 478.065,182.639 476.072,175.17 L475.844,174.314 L476.58,174.805 C479.124,176.492 481.993,177.396 484.879,177.42 L484.879,177.42 Z" id="Fill-4" fill="#0B0B0A" sketch:type="MSShapeGroup"></path>
            <path d="M485.831,154.141 L485.831,154.137 L485.831,154.141" id="Fill-5" fill="#0B0B0A" sketch:type="MSShapeGroup"></path>
            <path d="M215.828,156.516 C214.029,163.752 210.581,172.484 204.364,172.984 C204.19,172.996 204.021,173.006 203.858,173.006 C201.279,173.006 199.833,171.316 199.56,167.986 C199.218,163.818 201.016,158.938 204.137,155.549 C206.125,153.391 208.367,152.203 210.449,152.203 L210.491,152.203 C213.121,152.223 214.963,154.334 215.81,156.303 L215.855,156.404 L215.828,156.516 L215.828,156.516 Z M272.836,116.052 L272.925,116.05 C273.511,116.05 274.026,116.345 274.456,116.926 C276.496,119.685 276.526,129.751 273.018,141.206 C271.012,147.751 268.316,153.936 265.221,159.088 L264.728,159.908 L264.602,158.959 C264.237,156.189 264.058,153.305 263.931,150.85 C263.036,133.537 268.273,116.289 272.836,116.052 L272.836,116.052 Z M225.492,176.096 C231.499,175.613 236.266,167.443 238.036,163.953 L238.492,163.053 L238.665,164.047 C239.514,168.957 242.185,177.207 250.54,177.271 L250.61,177.271 C254.224,177.271 258.325,175.061 262.468,170.881 L262.772,170.574 L262.993,170.943 C265.783,175.609 269.525,178.088 273.508,177.885 C279.374,177.58 282.933,173.424 283.247,170.537 C283.327,169.801 283.132,169.109 282.712,168.641 C282.184,168.053 281.419,167.984 280.855,168.523 L280.588,168.777 C279.222,170.088 276.678,172.531 273.907,172.676 C270.513,172.842 268.002,170.813 266.38,166.625 L266.313,166.449 L266.427,166.301 C275.759,154.094 282.309,135.467 281.663,122.975 C281.365,117.193 279.683,110.3 273.369,110.3 C273.214,110.3 273.057,110.304 272.898,110.313 C270.478,110.438 268.279,111.59 266.359,113.738 C260.5,120.293 257.434,136.427 258.547,154.842 C258.778,158.668 259.442,162.244 260.521,165.467 L260.582,165.646 L260.459,165.791 C256.996,169.838 253.579,172.068 250.837,172.068 C244.24,172.068 244.462,161.008 244.984,151.834 C245.097,149.856 245.264,148.596 244.679,147.88 C244.26,147.368 243.561,147.115 242.542,147.106 L242.422,147.105 C240.076,147.105 239.584,147.588 238.383,151.072 C235.884,158.311 230.952,170.457 225.99,170.457 C224.614,170.445 223.564,169.975 222.846,169.059 C220.439,165.986 222.267,158.324 223.735,152.166 C223.999,151.059 224.252,149.996 224.469,149.012 C224.791,147.552 224.692,146.487 224.176,145.842 C223.659,145.2 222.625,144.939 221.262,145.047 C219.136,145.217 217.778,146.107 217.122,150.148 L216.99,150.988 L216.496,150.391 C215.568,149.021 213.758,147.388 210.4,147.388 C210.105,147.388 209.801,147.4 209.486,147.425 C205.902,147.719 201.82,150.217 198.833,153.943 C195.345,158.295 193.68,163.803 194.143,169.451 C194.168,169.75 194.211,170.037 194.254,170.322 L194.278,170.48 L194.17,170.6 C192.083,172.873 189.957,174.025 187.851,174.025 C184.601,174 182.735,171.584 182.735,167.561 C182.735,160.785 187.326,140.364 187.326,132.971 C187.326,125.103 183.82,120.819 177.732,120.773 L177.64,120.772 C168.751,120.772 161.822,130.86 155.192,151.613 C154.585,153.514 153.925,155.709 153.358,157.607 L152.428,160.729 L152.704,157.484 C153.32,150.254 153.743,143.221 153.961,136.577 C154.291,126.547 152.935,120.092 149.816,116.844 C148.133,115.092 145.907,114.229 143.007,114.206 L142.93,114.206 C132.052,114.206 126.841,132.553 123.047,145.498 C121.902,149.406 119.644,158.221 118.137,164.246 L119.03,162.795 C119.699,155.207 121.638,136.2 121.511,125.889 C121.374,114.828 117.69,109.868 109.566,109.806 L109.466,109.806 C105.126,109.806 102.116,111.962 100.354,113.772 C97.526,116.676 95.763,120.92 95.861,124.585 C95.921,126.813 97.289,128.797 98.325,128.797 C99,128.797 99.374,127.896 99.536,127.359 C102.049,119.05 105.302,115.01 109.478,115.01 C111.209,115.023 112.497,115.534 113.463,116.57 C116.724,120.069 116.131,129.517 115.055,146.669 C114.708,152.197 114.315,158.461 113.983,165.586 C113.926,166.809 113.85,167.988 113.778,169.111 C113.46,174.059 113.209,177.969 115.085,178.26 C117.527,178.641 119.117,177.648 119.929,175.232 C121.135,171.646 123.84,161.846 129.074,143.936 C134.096,126.75 137.89,120.497 142.744,120.497 C148.352,120.497 148.77,130.126 147.742,150.445 C147.523,154.752 147.23,159.631 147.005,164.941 C146.974,165.688 146.938,166.41 146.904,167.107 C146.688,171.504 146.518,174.973 147.773,176.303 C148.165,176.717 148.698,176.922 149.403,176.926 C151.834,176.926 152.564,174.795 153.776,171.262 C153.99,170.639 154.217,169.973 154.47,169.275 C162.8,146.296 168.96,126.359 177.227,126.359 C179.707,126.359 181.635,128.373 181.635,132.302 C181.635,141.369 177.203,158.889 177.203,167.771 C177.203,170.953 178.118,173.811 179.849,175.818 C181.625,177.879 184.11,178.979 187.035,179.002 L187.099,179.002 C189.865,179.002 192.748,177.658 195.667,175.008 L195.941,174.76 L196.161,175.057 C198.083,177.641 201.186,179.029 204.535,178.771 C209.673,178.371 213.984,173.797 215.588,169.482 L215.901,168.639 L216.215,169.482 C217.405,172.684 219.983,176.541 225.492,176.096 L225.492,176.096 Z" id="Fill-6" fill="#0B0B0A" sketch:type="MSShapeGroup"></path>
            <path d="M357.865,110.114 L357.865,110.113 L357.865,110.114" id="Fill-7" fill="#0B0B0A" sketch:type="MSShapeGroup"></path>
            <path d="M244.663,129.991 C242.368,129.991 240.514,131.799 240.498,134.021 C240.479,136.26 242.321,138.096 244.601,138.114 L244.634,138.447 L244.634,138.114 C246.895,138.114 248.749,136.307 248.766,134.085 C248.784,131.845 246.943,130.009 244.663,129.991" id="Fill-8" fill="#0B0B0A" sketch:type="MSShapeGroup"></path>
            <path d="M388.956,129.991 C386.661,129.991 384.808,131.799 384.79,134.021 C384.772,136.26 386.613,138.096 388.894,138.114 L388.926,138.447 L388.926,138.114 C391.189,138.114 393.043,136.307 393.06,134.085 C393.076,131.845 391.236,130.009 388.956,129.991" id="Fill-9" fill="#0B0B0A" sketch:type="MSShapeGroup"></path>
            <path d="M501.323,178.064 C499.989,178.064 498.914,176.99 498.914,175.656 C498.914,174.322 499.989,173.246 501.323,173.246 C502.656,173.246 503.733,174.322 503.733,175.656 C503.733,176.99 502.656,178.064 501.323,178.064 L501.323,178.064 Z M501.323,172.836 C499.77,172.836 498.505,174.102 498.505,175.656 C498.505,177.209 499.77,178.473 501.323,178.473 C502.877,178.473 504.143,177.209 504.143,175.656 C504.143,174.102 502.877,172.836 501.323,172.836 L501.323,172.836 Z" id="Fill-10" fill="#0B0C0A" sketch:type="MSShapeGroup"></path>
            <path d="M501.233,175.48 L500.71,175.48 L500.71,174.383 L501.436,174.383 C501.785,174.383 502.164,174.504 502.164,174.92 C502.164,175.459 501.68,175.48 501.233,175.48 L501.233,175.48 Z M502.572,174.92 C502.572,174.338 502.286,174.02 501.55,174.02 L500.3,174.02 L500.3,177.268 L500.71,177.268 L500.71,175.846 L501.293,175.846 L502.263,177.268 L502.725,177.268 L501.755,175.846 C502.195,175.77 502.572,175.52 502.572,174.92 L502.572,174.92 Z" id="Fill-11" fill="#0B0C0A" sketch:type="MSShapeGroup"></path>
        </g>
    </g>
</svg>