<?xml version="1.0" encoding="utf-8"?>
<!-- Generator: Adobe Illustrator 17.1.0, SVG Export Plug-In . SVG Version: 6.00 Build 0)  -->
<!DOCTYPE svg PUBLIC "-//W3C//DTD SVG 1.1//EN" "http://www.w3.org/Graphics/SVG/1.1/DTD/svg11.dtd">
<svg version="1.1" id="Layer_1" xmlns="http://www.w3.org/2000/svg" xmlns:xlink="http://www.w3.org/1999/xlink" x="0px" y="0px"
	 viewBox="0 0 100 100" enable-background="new 0 0 100 100" xml:space="preserve">
<g>
	<path fill="#FFFFFF" d="M69.4,54.3c-1.2,1.2-3.1,1.2-4.2,0L28.4,17.5c-1.2-1.2-1.2-3.1,0-4.2l2.1-2.1c1.2-1.2,3.1-1.2,4.2,0
		l36.8,36.7c1.2,1.2,1.2,3.1,0,4.2L69.4,54.3z"/>
</g>
<g>
	<path fill="#FFFFFF" d="M28.4,86.7c-1.2-1.2-1.2-3.1,0-4.2l36.7-36.8c1.2-1.2,3.1-1.2,4.2,0l2.1,2.1c1.2,1.2,1.2,3.1,0,4.2
		L34.8,88.9c-1.2,1.2-3.1,1.2-4.2,0L28.4,86.7z"/>
</g>
</svg>
