<?xml version="1.0" encoding="utf-8"?>
<!-- Generator: Adobe Illustrator 17.1.0, SVG Export Plug-In . SVG Version: 6.00 Build 0)  -->
<!DOCTYPE svg PUBLIC "-//W3C//DTD SVG 1.1//EN" "http://www.w3.org/Graphics/SVG/1.1/DTD/svg11.dtd">
<svg version="1.1" id="Layer_1" xmlns="http://www.w3.org/2000/svg" xmlns:xlink="http://www.w3.org/1999/xlink" x="0px" y="0px"
	 viewBox="0 0 100 100" enable-background="new 0 0 100 100" xml:space="preserve">
<g>
	<g>
		<path fill="#FFFFFF" d="M81.6,44.1H14.8c-3.3,0-5.9,2.6-5.9,5.9s2.6,5.9,5.9,5.9h66.8c3.3,0,5.9-2.6,5.9-5.9S84.9,44.1,81.6,44.1z
			 M81.6,67.7H14.8c-3.3,0-5.9,2.6-5.9,5.9s2.6,5.9,5.9,5.9h66.8c3.3,0,5.9-2.6,5.9-5.9S84.9,67.7,81.6,67.7z M14.8,32.3h66.8
			c3.3,0,5.9-2.6,5.9-5.9s-2.6-5.9-5.9-5.9H14.8c-3.3,0-5.9,2.6-5.9,5.9C8.9,29.7,11.5,32.3,14.8,32.3z"/>
	</g>
</g>
</svg>
